<svg xmlns="http://www.w3.org/2000/svg" version="1.1" xmlns:xlink="http://www.w3.org/1999/xlink" xmlns:svgjs="http://svgjs.dev/svgjs" width="1000" height="1000" viewBox="0 0 1000 1000"><rect width="1000" height="1000" fill="#111111"></rect><g transform="matrix(0.7,0,0,0.7,149.4720161666208,209.3859409630512)"><svg viewBox="0 0 297 247" data-background-color="#111111" preserveAspectRatio="xMidYMid meet" height="831" width="1000" xmlns="http://www.w3.org/2000/svg" xmlns:xlink="http://www.w3.org/1999/xlink"><g id="tight-bounds" transform="matrix(1,0,0,1,0.22401599787662008,-0.09997365579206985)"><svg viewBox="0 0 296.55187809523807 247.2" height="247.2" width="296.55187809523807"><g><svg viewBox="0 0 296.55187809523807 247.2" height="247.2" width="296.55187809523807"><g><svg viewBox="0 0 296.55187809523807 247.2" height="247.2" width="296.55187809523807"><g><svg viewBox="0 0 296.55187809523807 247.2" height="247.2" width="296.55187809523807"><g><svg viewBox="0 0 296.55187809523807 247.2" height="247.2" width="296.55187809523807"><path d="M295.858 53.02C294.463 27.36 290.49 20.227 290.49 20.227 278.291-6.202 263.067-0.506 249.39 3.292 225.244 3.446 201.195 9.091 177.104 12.119 126.538 12.581 75.539 4.986 25.224 23.717 20.498 29.464-4.903 24.846 0.841 56.304 2.346 69.39 7.839 83.913 7.672 95.922 8.425 98.026 9.47 93.202 9.917 96.23 11.478 104.39 14.029 100.541 16.121 105.365 13.207 118.246 15.298 128.971 17.292 140.21 13.778 143.135 9.275 141.749 7.254 151.449 7.045 158.479 5.915 157.145 4.675 156.837 3.768 156.632 1.942 157.402 2.249 159.608 3.294 167.152-1.195 171.514 1.621 178.904-0.316 186.91 2.96 193.838 2.514 202.511 2.458 204.255 2.765 205.744 3.253 206.154 5.413 208.361 2.263 212.672 2.597 217.342 24.764 249.262 48.814 227.195 71.524 241.872 77.422 231.608 72.988 245.516 75.344 243.36 77.185 240.846 78.523 251.263 80.6 245.362 80.921 243.668 80.433 239.665 81.576 240.435 82.176 240.846 82.705 240.743 82.789 238.382 82.915 234.841 81.813 237.048 81.52 235.201 84.685 225.861 83.904 248.081 86.874 247.158 86.734 244.438 85.87 240.538 87.641 241.051 89.397 237.151 89.453 233.918 91.015 242.693 91.07 244.592 91.349 245.926 91.795 246.85 96.675 237.305 101.526 250.237 106.643 245.926 109.78 241.205 112.791 248.492 115.97 246.696 117.085 245.259 118.214 242.693 119.288 247.004 132.435 247.928 146.446 244.079 158.91 247.158 192.216 241.41 227.809 249.518 262.928 241.923 271.209 238.998 279.811 234.841 287.883 231.506 287.883 231.506 294.422 222.371 294.422 181.316S295.816 145.393 296.025 112.703C296.234 80.013 297.21 78.679 295.816 53.02Z" opacity="1" fill="#ff851b" data-fill-palette-color="tertiary"></path><g transform="matrix(1,0,0,1,55.76831999999999,26.230666666666668)"><svg width="185.0152380952381" viewBox="1 -35.599998474121094 33.45000076293945 35.209999084472656" height="194.73866666666666" data-palette-color="#ffffff"><path d="M22.92-34.62L34.45-35.01 32.69-1.9 19.9-0.73 13.06-18.46 11.99-0.39 1-0.39 1.88-35.01 14.09-35.6 22.53-18.02 22.92-34.62Z" opacity="1" transform="matrix(1,0,0,1,0,0)" fill="#ffffff" class="undefined-text-0" data-fill-palette-color="quaternary" id="text-0"></path></svg></g></svg></g></svg></g></svg></g><g></g></svg></g><defs></defs></svg><rect width="296.55187809523807" height="247.2" fill="none" stroke="none" visibility="hidden"></rect></g></svg></g></svg>